HIERARCHY
ROOT joint_Root
{
	OFFSET 0.0 0.0 0.0
	CHANNELS 6 Xposition Yposition Zposition Zrotation Xrotation Yrotation 
	JOINT Hips
	{
		OFFSET 4.5925 91.4895 -427.239
		CHANNELS 6 Xposition Yposition Zposition Zrotation Xrotation Yrotation 
		JOINT Spine
		{
			OFFSET 15.7357 0.0 0.0
			CHANNELS 6 Xposition Yposition Zposition Zrotation Xrotation Yrotation 
			JOINT Chest
			{
				OFFSET 8.98455 -0.406207 0.0
				CHANNELS 6 Xposition Yposition Zposition Zrotation Xrotation Yrotation 
				JOINT Neck
				{
					OFFSET 16.3773 0.0 0.0
					CHANNELS 6 Xposition Yposition Zposition Zrotation Xrotation Yrotation 
					JOINT Head
					{
						OFFSET 6.45672 0.0 0.0
						CHANNELS 6 Xposition Yposition Zposition Zrotation Xrotation Yrotation 
						End Site
						{
							OFFSET 0.0 0.0 0.0
						}
					}
				}
				JOINT Shoulder_L
				{
					OFFSET 12.9942 -0.242716 4.98039
					CHANNELS 6 Xposition Yposition Zposition Zrotation Xrotation Yrotation 
					JOINT UpperArm_L
					{
						OFFSET 5.34809 0.0 0.0
						CHANNELS 6 Xposition Yposition Zposition Zrotation Xrotation Yrotation 
						JOINT LowerArm_L
						{
							OFFSET 24.3286 1.87007e-05 0.0
							CHANNELS 6 Xposition Yposition Zposition Zrotation Xrotation Yrotation 
							JOINT Hand_L
							{
								OFFSET 22.2916 0.0 0.0
								CHANNELS 6 Xposition Yposition Zposition Zrotation Xrotation Yrotation 
								End Site
								{
									OFFSET 0.0 0.0 0.0
								}
							}
						}
					}
				}
				JOINT Shoulder_R
				{
					OFFSET 12.9945 -0.242716 -4.98039
					CHANNELS 6 Xposition Yposition Zposition Zrotation Xrotation Yrotation 
					JOINT UpperArm_R
					{
						OFFSET -5.34813 0.0 0.0
						CHANNELS 6 Xposition Yposition Zposition Zrotation Xrotation Yrotation 
						JOINT LowerArm_R
						{
							OFFSET -24.3289 0.000322201 0.0
							CHANNELS 6 Xposition Yposition Zposition Zrotation Xrotation Yrotation 
							JOINT Hand_R
							{
								OFFSET -22.2915 -0.000108084 0.0
								CHANNELS 6 Xposition Yposition Zposition Zrotation Xrotation Yrotation 
								End Site
								{
									OFFSET 0.0 0.0 0.0
								}
							}
						}
					}
				}
			}
		}
		JOINT UpperLeg_L
		{
			OFFSET -2.19248 -6.46944 0.0
			CHANNELS 6 Xposition Yposition Zposition Zrotation Xrotation Yrotation 
			JOINT LowerLeg_L
			{
				OFFSET 39.0811 0.0 -1.23785e-05
				CHANNELS 6 Xposition Yposition Zposition Zrotation Xrotation Yrotation 
				JOINT Foot_L
				{
					OFFSET 40.9854 0.0 -1.26872e-05
					CHANNELS 6 Xposition Yposition Zposition Zrotation Xrotation Yrotation 
					JOINT Toes_L
					{
						OFFSET 11.7543 0.0 0.0
						CHANNELS 6 Xposition Yposition Zposition Zrotation Xrotation Yrotation 
						End Site
						{
							OFFSET 0.0 0.0 0.0
						}
					}
				}
			}
		}
		JOINT UpperLeg_R
		{
			OFFSET -2.19251 6.46944 0.0
			CHANNELS 6 Xposition Yposition Zposition Zrotation Xrotation Yrotation 
			JOINT LowerLeg_R
			{
				OFFSET -39.0811 -0.00228153 -0.0401928
				CHANNELS 6 Xposition Yposition Zposition Zrotation Xrotation Yrotation 
				JOINT Foot_R
				{
					OFFSET -40.9854 0.0 0.0
					CHANNELS 6 Xposition Yposition Zposition Zrotation Xrotation Yrotation 
					JOINT Toes_R
					{
						OFFSET -11.7543 0.0 0.0
						CHANNELS 6 Xposition Yposition Zposition Zrotation Xrotation Yrotation 
						End Site
						{
							OFFSET 0.0 0.0 0.0
						}
					}
				}
			}
		}
	}
}
MOTION
Frames:	4
Frame Time:	0.0333333
0.000000 0.000000 0.000000 0.000000 0.000000 -0.000000 0.215543 90.175100 -514.043000 92.415700 -13.288700 -2.884740 15.735700 0.000005 -0.000001 135.062000 82.081900 -137.054000 8.984550 -0.406207 -0.000000 3.679640 11.267300 -4.352110 16.377300 -0.000001 -0.000001 3.048850 -3.864290 1.938410 6.456720 -0.000001 -0.000000 1.474110 -9.049900 4.984710 12.994200 -0.242716 4.980390 -85.427500 -10.476300 -66.259700 5.348090 -0.000007 -0.000001 -79.485700 48.986300 47.030200 24.328600 0.000019 0.000005 10.578000 5.795480 -61.596400 22.291600 -0.000001 0.000005 -0.043508 5.599850 -11.323400 12.994500 -0.242716 -4.980390 90.612500 -2.846350 -77.853500 -5.348130 -0.000001 -0.000004 -54.916300 6.334650 -70.537400 -24.328900 0.000322 -0.000009 -6.887770 4.360610 -122.189000 -22.291500 -0.000108 -0.000004 25.865800 5.622130 -12.769600 -2.192480 -6.469440 -0.000000 178.791000 -1.916160 -37.009200 39.081100 -0.000007 -0.000012 0.058894 -0.031094 62.163300 40.985400 -0.000006 -0.000013 2.173860 -10.397800 -67.909600 11.754300 -0.000000 0.000003 -0.003270 -0.043624 -18.351000 -2.192510 6.469440 -0.000001 169.035000 21.403900 -173.831000 -39.081100 -0.002282 -0.040193 -0.021833 0.068325 20.211200 -40.985400 0.000008 0.000006 6.542710 18.354100 -74.421800 -11.754300 -0.000006 -0.000006 -0.019692 -0.165575 -23.337300
0.000000 0.000000 0.000000 0.000000 0.000000 -0.000000 0.300106 90.085100 -511.629000 92.469600 -12.173500 -3.545960 15.735700 0.000005 -0.000001 136.466000 81.974900 -138.729000 8.984550 -0.406207 -0.000000 3.588940 11.704600 -4.900470 16.377300 -0.000001 -0.000001 2.864370 -4.033370 1.069100 6.456720 -0.000001 -0.000000 0.594706 -10.580400 5.639540 12.994200 -0.242716 4.980390 -83.975200 -13.028900 -64.914300 5.348090 -0.000007 -0.000001 -78.084000 46.533000 45.627500 24.328600 0.000019 0.000005 13.476800 6.610490 -64.337500 22.291600 -0.000001 0.000005 -1.645820 5.589710 -10.742300 12.994500 -0.242716 -4.980390 90.917900 -4.007710 -77.088900 -5.348130 -0.000001 -0.000004 -56.000900 4.414260 -71.005000 -24.328900 0.000322 -0.000009 -6.970650 4.269480 -121.337000 -22.291500 -0.000108 -0.000004 26.434000 5.613890 -12.216100 -2.192480 -6.469440 -0.000000 178.784000 -2.042570 -37.825900 39.081100 -0.000007 -0.000012 0.044453 -0.033597 52.915100 40.985400 -0.000006 -0.000013 0.870686 -7.740910 -68.995300 11.754300 -0.000000 0.000003 -0.004779 -0.059320 -18.990200 -2.192510 6.469440 -0.000001 167.020000 25.321200 -171.643000 -39.081100 -0.002282 -0.040193 -0.028714 0.093027 19.002900 -40.985400 0.000008 0.000006 6.690370 21.938300 -73.232700 -11.754300 -0.000006 -0.000006 -0.028950 -0.212609 -25.280700
0.000000 0.000000 0.000000 0.000000 0.000000 -0.000000 0.321182 89.420300 -509.003000 92.056500 -11.375900 -3.627450 15.735700 0.000005 -0.000001 136.075000 81.774600 -138.347000 8.984550 -0.406207 -0.000000 3.958840 11.908100 -4.965840 16.377300 -0.000001 -0.000001 2.490430 -3.940440 0.013986 6.456720 -0.000001 -0.000000 -0.527821 -11.533500 5.915670 12.994200 -0.242716 4.980390 -83.228100 -13.971200 -63.810300 5.348090 -0.000007 -0.000001 -75.514200 43.102700 42.114300 24.328600 0.000019 0.000005 15.453100 6.602330 -67.417400 22.291600 -0.000001 0.000005 -2.313240 5.577660 -10.092300 12.994500 -0.242716 -4.980390 91.031500 -4.360490 -76.677200 -5.348130 -0.000001 -0.000004 -55.720600 5.847180 -69.970700 -24.328900 0.000322 -0.000009 -6.463760 3.724720 -119.829000 -22.291500 -0.000108 -0.000004 27.698300 5.612110 -12.097800 -2.192480 -6.469440 -0.000000 179.097000 -3.258080 -37.745600 39.081100 -0.000007 -0.000012 0.033365 -0.032863 45.431800 40.985400 -0.000006 -0.000013 -0.813024 -4.236150 -69.794200 11.754300 -0.000000 0.000003 -0.004327 -0.054805 -18.806300 -2.192510 6.469440 -0.000001 165.997000 25.611000 -169.974000 -39.081100 -0.002282 -0.040193 -0.037484 0.112404 19.952300 -40.985400 0.000008 0.000006 6.286950 22.690800 -73.169800 -11.754300 -0.000006 -0.000006 -0.039874 -0.259607 -27.236900
0.000000 0.000000 0.000000 0.000000 0.000000 -0.000000 0.376795 88.263400 -505.959000 91.297400 -11.455200 -3.201320 15.735700 0.000005 -0.000001 134.861000 81.459900 -136.981000 8.984550 -0.406207 -0.000000 4.652940 12.085300 -4.740890 16.377300 -0.000001 -0.000001 1.916480 -3.725370 -0.559313 6.456720 -0.000001 -0.000000 -1.624810 -11.752000 5.357150 12.994200 -0.242716 4.980390 -83.600600 -12.922600 -63.364900 5.348090 -0.000007 -0.000001 -72.898900 38.525800 38.479700 24.328600 0.000019 0.000005 14.434100 5.103440 -70.938700 22.291600 -0.000001 0.000005 -1.271240 5.555540 -8.983890 12.994500 -0.242716 -4.980390 90.854000 -3.884190 -77.593100 -5.348130 -0.000001 -0.000004 -54.650200 9.925480 -66.404300 -24.328900 0.000322 -0.000009 -6.160660 3.327060 -118.263000 -22.291500 -0.000108 -0.000004 28.235500 5.614250 -12.234200 -2.192480 -6.469440 -0.000000 179.195000 -6.076340 -37.807300 39.081100 -0.000007 -0.000012 0.030226 -0.032852 42.613900 40.985400 -0.000006 -0.000013 -1.323280 -3.036260 -69.758400 11.754300 -0.000000 0.000003 -0.004480 -0.056352 -18.869300 -2.192510 6.469440 -0.000001 165.903000 22.663300 -168.836000 -39.081100 -0.002282 -0.040193 -0.044160 0.114113 22.589500 -40.985400 0.000008 0.000006 6.145690 20.945100 -74.148300 -11.754300 -0.000006 -0.000006 -0.052706 -0.307283 -29.238500
